# xmcd CD database file
#
# Track frame offsets:
#	150
#	19998
#	38689
#	57457
#	72969
#	91780
#	111846
#	130947
#	153071
#	172470
#	193026
#	215100
#	237837
#	254807
#	276229
#	292149
#	312407
#	334336
#
# Disc length: 4702 seconds
#
# Revision: 0
# Processed by: cddbd v1.5.2PL0 Copyright (c) Steve Scherf et al.
# Submitted via: CDex 1.81
#
DISCID=21125c12
DTITLE=El Gran Combo De Puerto Rico - Lo Esencial CD 2
DYEAR=2007
DGENRE=Salsa
TTITLE0=Me Libere
TTITLE1=Te Regalo El Corazon
TTITLE2=Azuquita Pa'l Cafe
TTITLE3=Brujeria
TTITLE4=Aguacero
TTITLE5=Timbalero
TTITLE6=El Menu
TTITLE7=Se Me Fue
TTITLE8=Regresa Ya
TTITLE9=Por Mas Que Quieras
TTITLE10=Combustible
TTITLE11=Que Me Loden En Vida
TTITLE12=Asi Son
TTITLE13=Vete
TTITLE14=Julia
TTITLE15=No Hay Cama Pa' Tanta Gente
TTITLE16=Caja De Sorpresa
TTITLE17=Gracias
EXTD=YEAR: 2007
EXTT0=
EXTT1=
EXTT2=
EXTT3=
EXTT4=
EXTT5=
EXTT6=
EXTT7=
EXTT8=
EXTT9=
EXTT10=
EXTT11=
EXTT12=
EXTT13=
EXTT14=
EXTT15=
EXTT16=
EXTT17=
PLAYORDER=
